<?xml version="1.0" encoding="UTF-8" standalone="no"?>
<svg
   xmlns:dc="http://purl.org/dc/elements/1.1/"
   xmlns:cc="http://creativecommons.org/ns#"
   xmlns:rdf="http://www.w3.org/1999/02/22-rdf-syntax-ns#"
   xmlns:svg="http://www.w3.org/2000/svg"
   xmlns="http://www.w3.org/2000/svg"
   viewBox="0 0 1114.6667 648"
   height="648"
   width="1114.6667"
   xml:space="preserve"
   id="svg2"
   version="1.1"><metadata
     id="metadata8"><rdf:RDF><cc:Work
         rdf:about=""><dc:format>image/svg+xml</dc:format><dc:type
           rdf:resource="http://purl.org/dc/dcmitype/StillImage" /></cc:Work></rdf:RDF></metadata><defs
     id="defs6"><clipPath
       id="clipPath20"
       clipPathUnits="userSpaceOnUse"><path
         id="path18"
         d="M 457.031,48.1992 454.93,936.5 H 889.629 V 1115 H 454.93 v 136.5 c 0,115.5 73.5,199.5 174.3,199.5 94.5,0 178.5,-73.5 210,-174.3 l 149.098,105 C 937.93,1535 790.93,1640 606.129,1640 379.328,1640 226.031,1493 226.031,1283 V 1115 H 3.42969 V 936.5 H 226.031 L 228.129,48.1992 Z M 1383.01,8.30078 c 174.3,0 310.8,73.50002 388.5,197.39822 h 2.1 l 31.5,-157.4998 h 193.2 V 760.102 c 0,235.199 -193.2,396.898 -483,396.898 -283.5,0 -497.7,-159.602 -518.705,-342.301 l 210.005,-69.301 c 12.6,109.204 136.5,222.602 304.5,222.602 157.5,0 264.6,-73.5 264.6,-168 0,-50.398 -35.7,-81.898 -92.4,-88.199 L 1437.61,684.5 c -304.5,-33.602 -462.005,-168 -462.005,-350.699 0,-189 172.205,-325.50022 407.405,-325.50022 z m 60.9,186.89822 c -140.7,0 -241.5,60.903 -241.5,153.301 0,86.102 86.1,153.301 273,172.199 l 296.1,33.602 v -67.199 c 0,-170.102 -136.5,-291.903 -327.6,-291.903 z M 2346.79,1297.7 c 90.3,0 151.19,58.8 151.19,149.1 0,86.1 -60.89,147 -151.19,147 -90.31,0 -151.2,-60.9 -151.2,-147 0,-90.3 60.89,-149.1 151.2,-149.1 z M 2458.09,48.1992 V 1115 H 2229.18 V 48.1992 Z m 474.47,0 V 617.301 c 0,218.398 90.3,346.5 247.8,346.5 102.9,0 176.4,-79.801 186.9,-212.102 l 195.3,60.903 c -23.1,216.298 -149.1,342.298 -336,342.298 -132.3,0 -245.7,-77.7 -304.5,-205.798 h -2.1 L 2890.56,1115 h -186.9 V 48.1992 Z M 4156.74,8.30078 c 277.2,0 480.9,149.09722 480.9,357.00022 0,168 -109.2,260.398 -371.7,310.801 l -174.3,31.5 c -134.4,27.296 -193.2,63 -193.2,123.898 0,77.699 90.3,147 210,147 136.5,0 239.4,-71.398 254.1,-172.199 l 205.8,46.199 c -35.7,178.5 -218.4,302.4 -455.7,302.4 -249.9,0 -424.2,-136.5 -424.2,-338.099 0,-165.903 98.7,-254.102 325.5,-298.199 l 172.2,-29.403 c 165.9,-27.301 239.4,-73.5 239.4,-142.801 0,-92.398 -113.4,-157.5 -262.5,-157.5 -174.3,0 -300.3,92.403 -315,224.704 L 3633.84,380 c 8.4,-115.5 60.9,-207.898 159.6,-273 98.7,-65.1016 218.4,-98.69922 363.3,-98.69922 z m 999.48,0 c 174.3,0 310.8,73.50002 388.5,197.39822 h 2.1 l 31.5,-157.4998 h 193.2 V 760.102 c 0,235.199 -193.2,396.898 -483,396.898 -283.5,0 -497.7,-159.602 -518.7,-342.301 l 210,-69.301 c 12.6,109.204 136.5,222.602 304.5,222.602 157.5,0 264.6,-73.5 264.6,-168 0,-50.398 -35.7,-81.898 -92.4,-88.199 L 5210.82,684.5 c -304.5,-33.602 -462,-168 -462,-350.699 0,-189 172.2,-325.50022 407.4,-325.50022 z m 60.9,186.89822 c -140.7,0 -241.5,60.903 -241.5,153.301 0,86.102 86.1,153.301 273,172.199 l 296.1,33.602 v -67.199 c 0,-170.102 -136.5,-291.903 -327.6,-291.903 z M 6323.7,48.1992 6321.6,936.5 h 434.7 V 1115 h -434.7 v 136.5 c 0,115.5 73.49,199.5 174.29,199.5 94.5,0 178.5,-73.5 210,-174.3 l 149.11,105 C 6804.59,1535 6657.59,1640 6472.8,1640 6246,1640 6092.7,1493 6092.7,1283 V 1115 H 5870.09 V 936.5 h 222.61 l 2.1,-888.3008 z M 7413.47,6.19922 c 119.7,0 224.7,25.19918 319.2,77.69918 92.4,52.4996 155.4,117.6016 191.1,199.4996 l -170.1,86.102 c -56.7,-102.898 -184.79,-174.301 -336,-174.301 -199.5,0 -348.6,126 -373.79,317.102 h 848.39 c 4.2,27.301 6.3,56.699 6.3,88.199 0,323.398 -214.19,556.5 -533.4,556.5 -321.29,0 -556.5,-237.301 -556.5,-562.801 0,-340.199 254.1,-587.99978 604.8,-587.99978 z M 7661.27,680.301 H 7043.88 C 7075.38,854.602 7197.17,968 7363.07,968 c 168,0 279.31,-100.801 298.2,-287.699 z M 8196.65,20.8984 c 86.1,0 151.2,63 151.2,149.1016 0,86.102 -60.9,147 -151.2,147 -90.3,0 -151.2,-60.898 -151.2,-147 0,-86.1016 65.1,-149.1016 151.2,-149.1016 z" /></clipPath><clipPath
       id="clipPath26"
       clipPathUnits="userSpaceOnUse"><path
         id="path24"
         d="M 0,0 H 8360 V 4860 H 0 Z" /></clipPath><clipPath
       id="clipPath36"
       clipPathUnits="userSpaceOnUse"><path
         id="path34"
         d="m 3243.43,4340 h 1860 v 520 h -1860 z" /></clipPath><clipPath
       id="clipPath46"
       clipPathUnits="userSpaceOnUse"><path
         id="path44"
         d="m 3243.43,3320 h 1860 v 520 h -1860 z" /></clipPath><clipPath
       id="clipPath56"
       clipPathUnits="userSpaceOnUse"><path
         id="path54"
         d="m 3243.43,2300 h 700 v 520 h -700 z" /></clipPath></defs><g
     transform="matrix(1.3333333,0,0,-1.3333333,0,648)"
     id="g10"><g
       transform="scale(0.1)"
       id="g12"><g
         id="g14"><g
           clip-path="url(#clipPath20)"
           id="g16"><g
             clip-path="url(#clipPath26)"
             id="g22"><path
               id="path28"
               style="fill:#000000;fill-opacity:1;fill-rule:nonzero;stroke:none"
               d="M 0,0 H 8447.85 V 1740 H 0 Z" /></g></g></g><g
         id="g30"><g
           clip-path="url(#clipPath36)"
           id="g32"><path
             id="path38"
             style="fill:#43ff5d;fill-opacity:1;fill-rule:nonzero;stroke:none"
             d="m 3143.43,4240 h 2060 v 720 h -2060 z" /></g></g><g
         id="g40"><g
           clip-path="url(#clipPath46)"
           id="g42"><path
             id="path48"
             style="fill:#50b79a;fill-opacity:1;fill-rule:nonzero;stroke:none"
             d="m 3143.43,3220 h 2060 v 720 h -2060 z" /></g></g><g
         id="g50"><g
           clip-path="url(#clipPath56)"
           id="g52"><path
             id="path58"
             style="fill:#215b4b;fill-opacity:1;fill-rule:nonzero;stroke:none"
             d="m 3143.43,2200 h 900 v 720 h -900 z" /></g></g></g></g></svg>