<?xml version="1.0" standalone="no"?>
<!DOCTYPE svg PUBLIC "-//W3C//DTD SVG 20010904//EN"
 "http://www.w3.org/TR/2001/REC-SVG-20010904/DTD/svg10.dtd">
<svg version="1.0" xmlns="http://www.w3.org/2000/svg"
 width="647.000000pt" height="696.000000pt" viewBox="0 0 647.000000 696.000000"
 preserveAspectRatio="xMidYMid meet">
<metadata>
Created by potrace 1.16, written by Peter Selinger 2001-2019
</metadata>
<g transform="translate(0.000000,696.000000) scale(0.100000,-0.100000)"
fill="#000000" stroke="none">
<path d="M3045 6950 c-231 -15 -363 -44 -560 -119 -44 -17 -83 -31 -87 -31
-20 0 -222 -104 -283 -146 -115 -78 -256 -188 -321 -251 -171 -163 -350 -432
-422 -633 -11 -30 -34 -92 -51 -137 -64 -171 -97 -518 -73 -760 l8 -72 -61 -5
c-33 -3 -103 -8 -156 -11 -53 -3 -132 -14 -175 -26 -44 -11 -113 -26 -155 -34
-91 -18 -236 -75 -298 -118 -60 -41 -183 -164 -201 -202 -8 -16 -25 -46 -37
-65 -58 -92 -118 -307 -142 -510 -21 -176 -33 -449 -27 -615 6 -132 19 -1723
16 -1871 -1 -55 31 -226 50 -274 11 -25 24 -65 31 -90 32 -127 188 -365 313
-477 131 -118 331 -218 496 -248 19 -4 71 -17 115 -30 44 -13 125 -31 180 -40
55 -9 134 -23 175 -30 147 -28 337 -55 451 -65 63 -5 138 -15 165 -20 58 -12
345 -37 599 -52 227 -13 1258 -19 1305 -8 19 5 89 10 155 11 66 0 161 5 211
10 50 5 163 11 250 15 87 3 193 12 234 20 41 8 120 14 175 14 55 1 136 7 180
16 44 8 120 19 168 24 104 10 203 31 347 73 189 54 273 102 399 228 92 93 135
155 204 299 65 138 87 205 131 415 38 180 52 281 61 440 3 60 10 128 15 150
11 47 20 298 25 685 10 776 7 1066 -14 1200 -6 36 -17 107 -25 158 -15 94 -42
200 -77 303 -10 31 -19 62 -19 68 0 15 -47 127 -92 221 -37 77 -134 177 -224
232 -122 75 -423 169 -589 185 l-61 6 -12 211 c-17 284 -20 300 -103 548 -93
282 -259 545 -486 773 -168 168 -282 256 -464 355 -270 147 -381 187 -721 259
-113 24 -342 34 -523 21z m413 -326 c124 -19 286 -59 370 -90 114 -43 301
-142 422 -222 133 -90 331 -280 424 -407 138 -191 254 -439 292 -625 34 -165
55 -346 48 -410 l-6 -55 -67 1 c-65 1 -364 24 -369 28 -1 2 -4 74 -6 162 -10
337 -128 619 -361 863 -153 159 -338 276 -540 340 -149 47 -214 56 -410 55
-167 -1 -188 -3 -297 -32 -412 -108 -735 -404 -872 -799 -51 -149 -67 -244
-67 -419 l-1 -151 -142 -11 c-77 -5 -173 -11 -212 -12 l-71 -1 -7 32 c-10 50
-7 321 5 426 18 161 95 389 186 548 214 373 599 655 1028 752 237 53 432 61
653 27z m44 -690 c140 -41 292 -118 377 -189 116 -98 268 -319 307 -447 31
-105 54 -250 54 -351 l0 -78 -52 5 c-166 19 -564 37 -763 36 -126 -1 -421 -1
-655 1 l-424 4 -6 30 c-10 46 7 173 41 318 24 105 39 145 80 215 106 185 228
302 404 387 126 60 155 71 257 90 103 20 278 10 380 -21z m-2 -1299 c179 -3
397 -9 485 -15 88 -5 252 -14 365 -20 113 -6 277 -17 365 -25 88 -8 225 -19
305 -25 459 -35 808 -137 905 -265 58 -75 140 -301 186 -508 45 -206 53 -325
54 -847 2 -1031 -35 -1548 -135 -1904 -50 -178 -84 -241 -191 -351 -114 -118
-167 -158 -253 -190 -84 -32 -146 -40 -431 -61 -196 -14 -333 -15 -925 -9
-788 7 -869 9 -1068 24 -79 6 -147 9 -150 7 -4 -2 -75 0 -157 5 -83 5 -224 11
-315 14 -91 3 -210 12 -265 21 -55 8 -127 19 -160 24 -151 23 -508 111 -620
153 -286 108 -378 158 -524 288 -138 123 -221 215 -260 288 -56 106 -131 327
-144 426 l-13 90 -117 3 -117 3 0 39 0 40 116 0 c74 0 113 4 109 10 -4 6 -53
10 -115 10 -60 0 -111 3 -113 8 -6 8 -19 1065 -19 1472 0 216 4 295 22 425 29
215 44 281 85 381 66 160 99 194 260 267 161 74 364 114 704 137 80 6 175 15
211 20 59 9 187 21 547 51 151 13 697 26 903 22 80 -1 291 -5 470 -8z"/>
<path d="M1450 3114 c-71 -14 -128 -36 -148 -57 -32 -34 -37 -76 -13 -114 27
-44 66 -52 160 -35 85 15 232 9 303 -12 l43 -12 -82 -13 c-185 -27 -379 -104
-409 -162 -32 -63 10 -140 78 -142 18 0 62 13 98 30 221 102 468 107 681 11
65 -29 70 -30 94 -14 39 26 41 57 7 129 -50 108 -188 246 -312 311 -101 53
-205 77 -350 81 -69 2 -136 1 -150 -1z"/>
<path d="M4960 3054 c-92 -18 -194 -50 -250 -80 -124 -65 -262 -203 -312 -311
-34 -72 -32 -103 7 -129 24 -16 29 -15 94 14 136 61 265 80 412 62 111 -13
180 -32 269 -73 36 -17 80 -30 98 -30 68 2 110 79 78 142 -30 58 -224 135
-409 162 l-82 13 43 12 c71 21 218 27 303 12 94 -17 133 -9 160 35 38 62 3
125 -85 153 -50 16 -273 28 -326 18z"/>
<path d="M3545 1754 c-29 -31 -32 -74 -13 -181 19 -113 -9 -153 -83 -123 -16
7 -56 43 -90 81 -47 53 -69 70 -96 75 -47 9 -89 -14 -126 -67 -28 -41 -52 -57
-65 -44 -4 4 -7 40 -7 80 0 95 -21 128 -84 133 -36 3 -46 -1 -76 -31 -89 -89
-63 -291 45 -348 55 -30 136 -25 205 11 l57 30 45 -41 c57 -53 121 -80 200
-87 94 -7 148 12 210 74 40 40 55 64 69 110 29 101 0 269 -56 326 -39 39 -100
40 -135 2z"/>
</g>
</svg>
